<svg width="70" height="72" viewBox="0 0 70 72" fill="none" xmlns="http://www.w3.org/2000/svg">
<g clip-path="url(#clip0_1650_2053)">
<path d="M7.86035 0H50.6241C54.5468 0 57.7415 3.17979 57.7415 7.11738V71.3224H7.86035V0Z" fill="#8DDEF1"/>
<path d="M10.327 40.0149H7.25122V53.2095H10.327V40.0149Z" fill="#556DD3"/>
<path d="M3.07578 47.8306H0V53.2095H3.07578V47.8306Z" fill="#556DD3"/>
<path d="M17.5631 44.6062H14.4873V53.2095H17.5631V44.6062Z" fill="#556DD3"/>
<path d="M24.8143 36.7756H21.7385V53.2095H24.8143V36.7756Z" fill="#556DD3"/>
<path d="M32.0653 39.9109H28.9895V53.2096H32.0653V39.9109Z" fill="#556DD3"/>
<path d="M39.3016 32.0802H36.2258V53.1946H39.3016V32.0802Z" fill="#556DD3"/>
<path d="M50.6241 0C46.7014 0 43.5067 3.17979 43.5067 7.11738C43.5067 11.055 46.6865 14.2348 50.6241 14.2348H7.86034C3.9376 14.2199 0.757812 11.0401 0.757812 7.11738C0.757812 3.19465 3.9376 0 7.86034 0H50.6241Z" fill="#556DD3"/>
<path d="M39.3165 24.1011H23.0015V26.3299H39.3165V24.1011Z" fill="#769AFF"/>
<path d="M18.945 24.1011H14.4873V26.3299H18.945V24.1011Z" fill="#769AFF"/>
<path d="M32.0653 30.9213H14.4873V33.1501H32.0653V30.9213Z" fill="#769AFF"/>
<path d="M39.3165 56.6122H0V58.841H39.3165V56.6122Z" fill="#769AFF"/>
<path d="M67.7712 24.1011H47.7117C46.4808 24.1011 45.4829 25.099 45.4829 26.3299V56.6122C45.4829 57.8432 46.4808 58.841 47.7117 58.841H67.7712C69.0021 58.841 70 57.8432 70 56.6122V26.3299C70 25.099 69.0021 24.1011 67.7712 24.1011Z" fill="#769AFF"/>
<path d="M49.153 27.0134H66.3298C66.8202 27.0134 67.2214 27.4146 67.2214 27.905V36.7757C67.2214 37.266 66.8202 37.6672 66.3298 37.6672H49.153C48.6627 37.6672 48.2615 37.266 48.2615 36.7757V27.905C48.2615 27.4146 48.6627 27.0134 49.153 27.0134Z" fill="white"/>
<path d="M48.7518 40.6538C48.4547 40.9658 48.2764 41.3967 48.2764 41.8425C48.2764 42.2883 48.4547 42.7043 48.7518 43.0164C49.0787 43.3284 49.4948 43.5067 49.9257 43.5067C50.3566 43.5067 50.7875 43.3284 51.0995 43.0164C51.4264 42.7043 51.6047 42.2734 51.6047 41.8425C51.6047 41.4116 51.4264 40.9658 51.0995 40.6538C50.4755 40.0446 49.3759 40.0446 48.737 40.6538H48.7518Z" fill="#556DD3"/>
<path d="M55.1263 43.5067C56.0455 43.5067 56.7905 42.7616 56.7905 41.8425C56.7905 40.9234 56.0455 40.1783 55.1263 40.1783C54.2072 40.1783 53.4622 40.9234 53.4622 41.8425C53.4622 42.7616 54.2072 43.5067 55.1263 43.5067Z" fill="#556DD3"/>
<path d="M60.3417 43.5067C61.2608 43.5067 62.0059 42.7616 62.0059 41.8425C62.0059 40.9234 61.2608 40.1783 60.3417 40.1783C59.4226 40.1783 58.6775 40.9234 58.6775 41.8425C58.6775 42.7616 59.4226 43.5067 60.3417 43.5067Z" fill="#556DD3"/>
<path d="M66.7162 40.6538C66.0921 40.0446 64.9777 40.0446 64.3537 40.6538C64.0565 40.9658 63.8782 41.3967 63.8782 41.8425C63.8782 42.2883 64.0565 42.7043 64.3537 43.0164C64.6657 43.3284 65.0966 43.5067 65.5275 43.5067C65.9584 43.5067 66.3893 43.3284 66.7014 43.0164C67.0282 42.7043 67.2066 42.2734 67.2066 41.8425C67.2066 41.4116 67.0282 40.9658 66.7014 40.6538H66.7162Z" fill="#556DD3"/>
<path d="M48.7518 47.0728C48.4547 47.3848 48.2764 47.8157 48.2764 48.2615C48.2764 48.7073 48.4398 49.1233 48.7518 49.4353C49.0787 49.7474 49.4948 49.9257 49.9257 49.9257C50.3566 49.9257 50.7875 49.7474 51.1144 49.4353C51.4264 49.1233 51.6047 48.6924 51.6047 48.2615C51.6047 47.8306 51.4116 47.3848 51.0995 47.0728C50.4903 46.4487 49.3611 46.4487 48.737 47.0728H48.7518Z" fill="#556DD3"/>
<path d="M60.3417 49.9109C61.2608 49.9109 62.0059 49.1658 62.0059 48.2467C62.0059 47.3276 61.2608 46.5825 60.3417 46.5825C59.4226 46.5825 58.6775 47.3276 58.6775 48.2467C58.6775 49.1658 59.4226 49.9109 60.3417 49.9109Z" fill="#556DD3"/>
<path d="M55.1263 49.9109C56.0455 49.9109 56.7905 49.1658 56.7905 48.2467C56.7905 47.3276 56.0455 46.5825 55.1263 46.5825C54.2072 46.5825 53.4622 47.3276 53.4622 48.2467C53.4622 49.1658 54.2072 49.9109 55.1263 49.9109Z" fill="#556DD3"/>
<path d="M48.7518 53.477C48.4547 53.789 48.2764 54.2199 48.2764 54.6657C48.2764 55.1114 48.4547 55.5275 48.7518 55.8395C49.0639 56.1516 49.4948 56.3299 49.9257 56.3299C50.3566 56.3299 50.8024 56.1516 51.0995 55.8395C51.4264 55.5275 51.6047 55.0966 51.6047 54.6657C51.6047 54.2348 51.4264 53.789 51.0995 53.477C50.4903 52.8529 49.3759 52.8529 48.737 53.477H48.7518Z" fill="#556DD3"/>
<path d="M55.1263 56.315C56.0455 56.315 56.7905 55.5699 56.7905 54.6508C56.7905 53.7317 56.0455 52.9866 55.1263 52.9866C54.2072 52.9866 53.4622 53.7317 53.4622 54.6508C53.4622 55.5699 54.2072 56.315 55.1263 56.315Z" fill="#556DD3"/>
<path d="M60.3417 56.315C61.2608 56.315 62.0059 55.5699 62.0059 54.6508C62.0059 53.7317 61.2608 52.9866 60.3417 52.9866C59.4226 52.9866 58.6775 53.7317 58.6775 54.6508C58.6775 55.5699 59.4226 56.315 60.3417 56.315Z" fill="#556DD3"/>
<path d="M65.5424 56.3298C64.6211 56.3298 63.8782 55.5869 63.8782 54.6656V48.2615C63.8782 47.3402 64.6211 46.5973 65.5424 46.5973C66.4636 46.5973 67.2066 47.3402 67.2066 48.2615V54.6656C67.2066 55.5869 66.4636 56.3298 65.5424 56.3298Z" fill="#8DDEF1"/>
</g>
<defs>
<clipPath id="clip0_1650_2053">
<rect width="70" height="71.3224" fill="white"/>
</clipPath>
</defs>
</svg>
