<svg width="70" height="74" viewBox="0 0 70 74" fill="none" xmlns="http://www.w3.org/2000/svg">
<g clip-path="url(#clip0_1650_2080)">
<path d="M55.1437 10.7118L44.4319 0H0V73.1389H55.1437V10.7118Z" fill="#8DDEF1"/>
<path d="M55.1437 10.7118L44.4319 0V10.7118H55.1437Z" fill="#769AFF"/>
<path d="M29.7889 7.28345H8.13672V9.56904H29.7889V7.28345Z" fill="#556DD3"/>
<path d="M38.9921 15.7706H24.1357V18.0562H38.9921V15.7706Z" fill="#556DD3"/>
<path d="M19.5647 15.7706H8.13672V18.0562H19.5647V15.7706Z" fill="#556DD3"/>
<path d="M47.0069 36.1885H28.7222V38.4741H47.0069V36.1885Z" fill="#556DD3"/>
<path d="M39.0073 44.6909H29.865V46.9765H39.0073V44.6909Z" fill="#556DD3"/>
<path d="M25.2786 44.6909H8.13672V46.9765H25.2786V44.6909Z" fill="#556DD3"/>
<path d="M16.1363 53.1781H8.13672V55.4637H16.1363V53.1781Z" fill="#556DD3"/>
<path d="M36.7066 53.1781H20.7075V55.4637H36.7066V53.1781Z" fill="#556DD3"/>
<path d="M24.1358 61.6804H8.13672V63.966H24.1358V61.6804Z" fill="#556DD3"/>
<path d="M37.8645 61.6804H28.7222V63.966H37.8645V61.6804Z" fill="#556DD3"/>
<path d="M8.98992 34.68L7.29858 33.141L14.6734 25.1415L22.2159 27.8537L29.5298 22.0483L39.6168 23.3587L46.885 13.3326L58.8158 16.9895L68.0496 7.771L69.6647 9.38615L59.4557 19.5799L47.784 15.9991L40.6682 25.7967L30.185 24.4406L22.6425 30.4288L15.3286 27.808L8.98992 34.68Z" fill="white"/>
<path d="M8.82228 40.5311L7.45093 38.7027L14.7191 33.2477L22.1244 34.7714L30.703 27.7166L42.0852 30.185L51.5933 21.4084L61.1318 23.892L68.1105 17.98L69.5885 19.7323L61.7108 26.391L52.218 23.9378L42.7709 32.6687L31.2973 30.185L22.7339 37.2246L15.2676 35.7009L8.82228 40.5311Z" fill="#769AFF"/>
</g>
<defs>
<clipPath id="clip0_1650_2080">
<rect width="70" height="73.1389" fill="white"/>
</clipPath>
</defs>
</svg>
