<svg width="70" height="70" viewBox="0 0 70 70" fill="none" xmlns="http://www.w3.org/2000/svg">
<g clip-path="url(#clip0_1650_2095)">
<path d="M36.4583 58.5958V53.9583C36.4583 53.1562 35.8021 52.5 35 52.5C34.1979 52.5 33.5417 53.1562 33.5417 53.9583V58.5958C31.85 59.1937 30.625 60.7979 30.625 62.7083C30.625 65.1146 32.5938 67.0833 35 67.0833C37.4062 67.0833 39.375 65.1146 39.375 62.7083C39.375 60.8125 38.15 59.2083 36.4583 58.5958ZM35 64.1667C34.1979 64.1667 33.5417 63.5104 33.5417 62.7083C33.5417 61.9062 34.1979 61.25 35 61.25C35.8021 61.25 36.4583 61.9062 36.4583 62.7083C36.4583 63.5104 35.8021 64.1667 35 64.1667Z" fill="white"/>
<path d="M32.0833 39.375C32.0833 30.523 24.8937 23.3334 16.0417 23.3334C7.18958 23.3334 0 30.523 0 39.375C0 46.1563 4.24375 51.9605 10.2083 54.3084V64.1667C10.2083 67.3896 12.8187 70 16.0417 70C19.2646 70 21.875 67.3896 21.875 64.1667V54.3084C27.8396 51.975 32.0833 46.1709 32.0833 39.375ZM18.9583 64.1667C18.9583 65.7709 17.6458 67.0834 16.0417 67.0834C14.4375 67.0834 13.125 65.7709 13.125 64.1667V55.1396C14.0729 55.3146 15.05 55.4167 16.0417 55.4167C17.0333 55.4167 18.0104 55.3146 18.9583 55.1396V64.1667ZM16.0417 52.5C8.80833 52.5 2.91667 46.6084 2.91667 39.375C2.91667 32.1417 8.80833 26.25 16.0417 26.25C23.275 26.25 29.1667 32.1417 29.1667 39.375C29.1667 46.6084 23.275 52.5 16.0417 52.5Z" fill="white"/>
<path d="M16.0416 49.5833C21.6795 49.5833 26.2499 45.0129 26.2499 39.375C26.2499 33.7371 21.6795 29.1666 16.0416 29.1666C10.4037 29.1666 5.83325 33.7371 5.83325 39.375C5.83325 45.0129 10.4037 49.5833 16.0416 49.5833Z" fill="#42A5F5"/>
<path d="M35.0001 5.83333C34.198 5.83333 33.5417 5.17708 33.5417 4.375V1.45833C33.5417 0.65625 34.198 0 35.0001 0C35.8022 0 36.4584 0.65625 36.4584 1.45833V4.375C36.4584 5.17708 35.8022 5.83333 35.0001 5.83333Z" fill="white"/>
<path d="M65.625 2.91663H4.375C1.96875 2.91663 0 4.88538 0 7.29163C0 9.18746 1.225 10.7916 2.91667 11.4041V25.7104C3.80625 24.85 4.78333 24.077 5.83333 23.4062V11.6666H64.1667V52.5H29.7208C28.6562 53.6229 27.4312 54.6 26.1042 55.4166H65.625C66.4271 55.4166 67.0833 54.7604 67.0833 53.9583V11.4041C68.775 10.7916 70 9.18746 70 7.29163C70 4.88538 68.0312 2.91663 65.625 2.91663Z" fill="#42A5F5"/>
<path d="M56.8751 36.4583H52.5001V35C52.5001 34.1979 51.8438 33.5416 51.0417 33.5416H45.2084C44.4063 33.5416 43.7501 34.1979 43.7501 35V39.375H39.3751C38.573 39.375 37.9167 40.0312 37.9167 40.8333V48.125C37.9167 48.927 38.573 49.5833 39.3751 49.5833H56.8751C57.6772 49.5833 58.3334 48.927 58.3334 48.125V37.9166C58.3334 37.1145 57.6772 36.4583 56.8751 36.4583ZM40.8334 42.2916H43.7501V46.6666H40.8334V42.2916ZM46.6667 40.8333V36.4583H49.5834V46.6666H46.6667V40.8333ZM55.4167 46.6666H52.5001V39.375H55.4167V46.6666Z" fill="white"/>
<path d="M46.6667 18.9583H35.0001C34.198 18.9583 33.5417 18.302 33.5417 17.5C33.5417 16.6979 34.198 16.0416 35.0001 16.0416H46.6667C47.4688 16.0416 48.1251 16.6979 48.1251 17.5C48.1251 18.302 47.4688 18.9583 46.6667 18.9583Z" fill="white"/>
<path d="M39.3749 20.4167C40.9857 20.4167 42.2916 19.1109 42.2916 17.5C42.2916 15.8892 40.9857 14.5834 39.3749 14.5834C37.7641 14.5834 36.4583 15.8892 36.4583 17.5C36.4583 19.1109 37.7641 20.4167 39.3749 20.4167Z" fill="#42A5F5"/>
<path d="M46.6667 27.7083H35.0001C34.198 27.7083 33.5417 27.052 33.5417 26.25C33.5417 25.4479 34.198 24.7916 35.0001 24.7916H46.6667C47.4688 24.7916 48.1251 25.4479 48.1251 26.25C48.1251 27.052 47.4688 27.7083 46.6667 27.7083Z" fill="white"/>
<path d="M42.2917 29.1667C43.9025 29.1667 45.2083 27.8609 45.2083 26.25C45.2083 24.6392 43.9025 23.3334 42.2917 23.3334C40.6808 23.3334 39.375 24.6392 39.375 26.25C39.375 27.8609 40.6808 29.1667 42.2917 29.1667Z" fill="#42A5F5"/>
</g>
<defs>
<clipPath id="clip0_1650_2095">
<rect width="70" height="70" fill="white"/>
</clipPath>
</defs>
</svg>
